# xmcd
#
# Track frame offsets: 
#        150
#        12956
#        31946
#        50644
#        68578
#        83488
#        99973
#        114619
#        127444
#        142715
#        155834
#
# Disc length: 2389 seconds
#
# Revision: 0
# Processed by: cddbd v1.5.1PL0 Copyright (c) Steve Scherf et al.
# Submitted via: ExactAudioCopy v0.95a5
#
DISCID=8b09530b
DTITLE=Jake Mathews - Time After Time
DYEAR=2004
DGENRE=Country
TTITLE0=Time After Time
TTITLE1=Signs of You Everywhere
TTITLE2=Payin' Your Dues
TTITLE3=Arizona On My Mind
TTITLE4=It's A Better World
TTITLE5=Kings For A Day
TTITLE6=You Got Away With Love
TTITLE7=How Many Days
TTITLE8=That's Why They Call It Cheatin'
TTITLE9=My Heart Won't Let You Leave My Mind
TTITLE10=He Never Learned How
EXTD=
EXTT0=
EXTT1=
EXTT2=
EXTT3=
EXTT4=
EXTT5=
EXTT6=
EXTT7=
EXTT8=
EXTT9=
EXTT10=
PLAYORDER=
